<svg data-v-0dd9719b="" version="1.0" xmlns="http://www.w3.org/2000/svg" xmlns:xlink="http://www.w3.org/1999/xlink" width="100%" height="100%" viewBox="0 0 340.000000 250.000000" preserveAspectRatio="xMidYMid meet" color-interpolation-filters="sRGB" style="margin: auto;"> <rect data-v-0dd9719b="" x="0" y="0" width="100%" height="100%" fill="#fff" fill-opacity="1" class="background"></rect> <rect data-v-0dd9719b="" x="0" y="0" width="100%" height="100%" fill="url(#watermark)" fill-opacity="1" class="watermarklayer"></rect> <g data-v-0dd9719b="" fill="#09097D" class="icon-text-wrapper icon-svg-group iconsvg" transform="translate(48.125,95)"><g class="iconsvg-imagesvg" transform="translate(0,0)"><g><rect fill="#09097D" fill-opacity="0" stroke-width="2" x="0" y="0" width="60" height="60" class="image-rect"></rect> <svg x="0" y="0" width="60" height="60" filtersec="colorsb3134486195" class="image-svg-svg primary" style="overflow: visible;"><svg xmlns="http://www.w3.org/2000/svg" viewBox="0 0 125 125"><g><g fill="#09097D"><path d="M0 47.34V0h47.34L0 47.34zM125 125H77.66L125 77.66V125zM24.23 125H0v-24.23L100.77 0H125v24.23L24.23 125z"></path></g></g></svg></svg> <!----></g></g> <g transform="translate(67,19.429999351501465)"><g data-gra="path-name" fill-rule="" class="tp-name iconsvg-namesvg"><g transform="scale(1)"><g><path d="M15.66 3.34L15.66 3.34 1.23 3.34 1.23 1.2 12.71-14.97 1.78-14.97 1.78-17.32 15.33-17.32 15.33-14.58 4.28 0.96 15.66 0.96 15.66 3.34ZM27.68 3.37L27.68 3.37Q26.14 3.37 24.77 2.88 23.4 2.38 22.38 1.52 21.35 0.66 20.76-0.5 20.18-1.66 20.18-2.98L20.18-2.98 20.18-14.91 19.39-14.91 19.39-17.29 22.56-17.29 22.56-2.98Q22.56-2.17 22.96-1.43 23.37-0.69 24.06-0.15 24.75 0.39 25.69 0.71 26.62 1.02 27.68 1.02L27.68 1.02Q28.73 1.02 29.66 0.71 30.6 0.39 31.29-0.15 31.98-0.69 32.39-1.43 32.8-2.17 32.8-2.98L32.8-2.98 32.8-17.32 35.14-17.32 35.14-2.98Q35.14-1.66 34.56-0.5 33.97 0.66 32.96 1.52 31.95 2.38 30.58 2.88 29.21 3.37 27.68 3.37ZM42.67 3.37L42.67 3.37 40.29 3.37 40.29-17.2 42.67-17.2 42.67 3.37ZM65.53 3.19L65.53 3.19 63.15 3.19 63.15-16.2 65.53-16.2 65.53 3.19ZM72.16-15.03L72.16-15.03 56.53-15.03 56.53-17.38 72.16-17.38 72.16-15.03ZM78.42-16.05L78.42 3.34 76.04 3.34 76.04-16.05 78.42-16.05ZM89.32 2.02L87.36 3.34 80.62-6.6 80.62-8.19 83.21-8.19Q84.02-8.19 84.74-8.46 85.47-8.73 85.99-9.2 86.52-9.67 86.84-10.28 87.15-10.9 87.15-11.62L87.15-11.62Q87.15-12.32 86.84-12.93 86.52-13.55 85.99-14.02 85.47-14.49 84.74-14.76 84.02-15.03 83.21-15.03L83.21-15.03 75.26-15.03 75.26-17.38 83.21-17.38Q84.5-17.38 85.65-16.92 86.79-16.47 87.65-15.69 88.51-14.91 89.01-13.85 89.5-12.8 89.5-11.62L89.5-11.62Q89.5-10.51 89.08-9.53 88.66-8.55 87.91-7.78 87.15-7.02 86.16-6.5 85.17-5.99 83.99-5.87L83.99-5.87 89.32 2.02ZM108.42 3.46L108.42 3.46 101.13-14.91 98.84-14.91 98.84-17.29 102.72-17.29 110.61 2.59 108.42 3.46ZM94.47 3.52L94.47 3.52 92.27 2.65 99.89-16.47 102.09-15.6 94.47 3.52ZM107-2.74L107-2.74 96.34-2.74 96.34-5.12 107-5.12 107-2.74ZM120.85 3.46L120.85 3.46 115.07 3.46 115.07-14.91 114.2-14.91 114.2-17.29 120.85-17.29Q122.54-17.29 124.15-16.7 125.76-16.11 127.03-15.03L127.03-15.03Q127.6-14.55 128.19-13.84 128.77-13.13 129.26-12.14 129.74-11.14 130.05-9.85 130.37-8.55 130.37-6.9L130.37-6.9Q130.37-5.27 130.05-3.98 129.74-2.68 129.26-1.69 128.77-0.69 128.19 0.03 127.6 0.75 127.03 1.23L127.03 1.23Q125.76 2.29 124.15 2.88 122.54 3.46 120.85 3.46ZM117.42-14.91L117.42 1.11 120.85 1.11Q121.85 1.11 123.08 0.75 124.32 0.39 125.42-0.51 126.51-1.42 127.25-2.97 127.99-4.52 127.99-6.9L127.99-6.9Q127.99-9.28 127.25-10.83 126.51-12.38 125.42-13.28 124.32-14.18 123.08-14.55 121.85-14.91 120.85-14.91L120.85-14.91 117.42-14.91ZM137.84 3.37L137.84 3.37 135.46 3.37 135.46-17.2 137.84-17.2 137.84 3.37ZM146.24 3.34L146.24 3.34 143.86 3.34 143.86-16.2 146.24-16.2 146.24 3.34ZM158.11 3.31L158.11 3.31 155.91 3.31 146.09-15.03 143.2-15.03 143.2-17.38 147.51-17.38 155.73-2.05 155.73-17.62 158.11-17.62 158.11 3.31ZM170.78 3.01L170.78 3.01Q168.98 3.01 167.38 2.21 165.79 1.42 164.6 0.02 163.41-1.39 162.71-3.24 162.02-5.09 162.02-7.23L162.02-7.23Q162.02-9.34 162.71-11.2 163.41-13.07 164.6-14.46 165.79-15.84 167.38-16.65 168.98-17.47 170.78-17.47L170.78-17.47Q172.89-17.47 174.71-16.41 176.54-15.36 177.8-13.4L177.8-13.4 175.81-12.11Q174.88-13.55 173.59-14.32 172.29-15.09 170.78-15.09L170.78-15.09Q169.46-15.09 168.3-14.47 167.14-13.85 166.27-12.78 165.39-11.71 164.9-10.28 164.4-8.85 164.4-7.23L164.4-7.23Q164.4-5.6 164.9-4.17 165.39-2.74 166.27-1.66 167.14-0.57 168.3 0.05 169.46 0.66 170.78 0.66L170.78 0.66Q172.2 0.66 173.45-0.05 174.7-0.75 175.63-2.05L175.63-2.05 175.63-6.05 169.01-6.05 169.01-8.4 177.98-8.4 177.98-1.36 177.8-1.05Q176.54 0.9 174.71 1.96 172.89 3.01 170.78 3.01Z" transform="translate(-1.2300000190734863, 17.6200008392334)"></path></g> <!----> <!----> <!----> <!----> <!----> <!----> <!----></g></g> <!----></g></g><defs v-gra="od"></defs></svg>